<svg version="1.1" id="Layer_1" xmlns="http://www.w3.org/2000/svg" xmlns:xlink="http://www.w3.org/1999/xlink" x="0px" y="0px"
	 width="100%" viewBox="0 0 234 244" enable-background="new 0 0 234 244" xml:space="preserve">
<path fill="#FFFFFF" opacity="1.000000" stroke="none" 
	d="
M235.000000,147.000000 
	C235.000000,179.651688 235.000000,212.303360 235.000000,244.977524 
	C157.050766,244.977524 79.101532,244.977524 1.076147,244.977524 
	C1.076147,163.754807 1.076147,82.509514 1.076147,1.132111 
	C78.875946,1.132111 156.752182,1.132111 235.000000,1.132111 
	C235.000000,48.686916 235.000000,96.374802 234.705002,144.349670 
	C233.622208,143.232712 233.108337,141.548248 232.003311,140.469193 
	C223.125519,131.800171 211.947952,130.839584 200.605621,132.318405 
	C189.490158,133.767639 180.764038,140.089951 173.842346,148.398117 
	C170.046967,146.249023 166.175507,144.560440 162.899139,142.084427 
	C157.897705,138.304733 153.399948,133.865570 148.502869,129.937653 
	C146.123688,128.029327 143.436249,125.548454 140.689789,125.267403 
	C135.953323,124.782700 131.061783,125.813568 125.016029,126.308235 
	C128.353790,132.010574 129.063293,138.485611 134.573181,141.612305 
	C139.066055,144.161850 144.403656,145.171188 149.164734,147.312546 
	C155.383560,150.109543 163.046478,150.139343 167.263657,156.774597 
	C161.467422,164.196609 152.289612,165.505447 141.539886,160.832428 
	C139.268539,159.845047 136.392654,159.144302 134.071472,159.630325 
	C130.449112,160.388809 127.378014,162.527542 127.004166,166.917816 
	C126.552589,172.220978 128.077560,176.577026 133.056808,179.042648 
	C135.827164,180.414490 138.766190,181.518173 141.727814,182.418182 
	C151.952759,185.525467 161.769043,184.425705 171.297363,179.546631 
	C179.355026,175.420609 185.080994,168.977905 190.191452,161.764679 
	C195.607910,154.119553 206.358429,148.717422 216.692734,154.248581 
	C225.475616,158.949371 230.611893,156.456528 235.000000,147.000000 
M77.551735,26.765808 
	C78.562012,30.290857 78.749420,34.400639 80.752838,37.219955 
	C85.001457,43.198853 89.476990,49.451767 95.212967,53.811642 
	C100.561859,57.877296 107.663345,59.637199 113.446854,62.172493 
	C113.446854,63.491951 113.518196,65.300316 113.433083,67.101288 
	C113.204208,71.944206 113.262245,76.836952 112.547264,81.611214 
	C111.707085,87.221458 110.141579,92.721214 108.976089,98.286789 
	C108.817291,99.045097 108.894402,100.077713 109.301086,100.693542 
	C112.242348,105.147408 115.296516,109.526718 118.745407,114.557579 
	C122.413628,108.300270 128.778641,104.252151 127.977150,96.564285 
	C126.787376,85.152145 121.579880,74.223671 124.021004,62.130192 
	C125.123001,62.702660 126.223564,63.343719 127.378746,63.863346 
	C135.595856,67.559601 139.949020,73.662964 139.990128,82.904655 
	C140.022018,90.077682 147.878204,94.919212 154.561630,92.214005 
	C160.597656,89.770844 162.656815,83.986511 160.899033,75.489815 
	C157.164307,57.437160 139.096405,41.423119 120.183968,40.949902 
	C111.944328,40.743736 104.203697,38.682114 100.445389,30.389080 
	C98.588615,26.291960 98.140015,21.566940 96.953766,17.153038 
	C95.516907,11.806663 90.108063,8.643567 84.047913,9.498913 
	C79.520866,10.137871 76.903160,13.840090 77.055321,19.698841 
	C77.110275,21.814886 77.577858,23.920216 77.551735,26.765808 
M46.982346,211.640472 
	C57.902115,207.330109 64.927330,199.190369 69.223160,188.567719 
	C73.559326,177.845367 72.792404,167.135223 68.168427,156.669846 
	C69.804359,156.063034 71.194839,155.637253 72.509773,155.044022 
	C78.418770,152.378296 84.163559,149.273071 90.235352,147.061569 
	C99.136986,143.819382 107.715034,140.550491 111.065109,130.438522 
	C111.729088,128.434357 112.808487,126.379509 109.630615,126.020226 
	C100.731476,125.014130 92.753395,125.268524 85.314941,132.543915 
	C79.380074,138.348663 73.961212,146.166992 64.284317,147.038574 
	C63.134937,137.157318 65.132416,128.641846 74.426956,123.162521 
	C75.533485,122.510208 76.929497,121.406883 77.122688,120.322281 
	C77.725075,116.940308 78.738243,113.204300 77.855675,110.099098 
	C76.873291,106.642708 73.557831,104.898346 69.392990,104.717079 
	C62.492249,104.416725 57.688053,108.522820 53.830940,112.778671 
	C41.846577,126.001991 38.839851,149.029572 49.710884,164.780106 
	C51.442318,167.288696 52.182644,171.218094 51.806629,174.298416 
	C50.890659,181.802124 47.037777,187.841690 40.575138,192.147614 
	C38.875755,193.279892 37.098743,194.959671 36.387356,196.788620 
	C34.079155,202.723007 35.811554,211.194748 46.982346,211.640472 
M172.667892,110.788872 
	C169.559052,114.265335 166.752090,118.088387 163.262558,121.127785 
	C159.190170,124.674835 157.054459,130.287384 159.136749,134.455750 
	C161.492569,139.171631 167.333908,141.871292 172.539307,138.883850 
	C177.852066,135.834793 182.727463,131.411728 186.630112,126.638336 
	C196.324738,114.780670 197.812119,99.258698 190.707535,85.128990 
	C184.907547,73.593834 184.128891,58.352573 198.491989,50.835365 
	C202.190491,48.899689 203.099380,43.519352 201.157684,39.464535 
	C198.995956,34.950230 193.878693,32.375462 189.632309,33.769161 
	C176.613251,38.042110 166.562805,54.000736 166.155762,66.506035 
	C165.916565,73.854851 167.326019,81.257339 167.925552,87.880447 
	C165.438019,89.632095 163.092911,91.951759 160.271164,93.128159 
	C154.776947,95.418739 148.924744,96.842148 143.395615,99.060432 
	C139.449768,100.643494 135.130646,102.261192 132.197479,105.116203 
	C129.569168,107.674484 128.797821,112.054993 126.847565,115.423332 
	C125.360123,117.992348 126.551979,118.764160 128.698425,118.982765 
	C137.480576,119.877190 145.227692,118.641998 152.106400,111.804428 
	C158.212051,105.735283 163.684433,97.913750 174.349838,97.484978 
	C173.886795,101.619743 173.416321,105.820877 172.667892,110.788872 
M125.976952,160.227264 
	C126.272209,158.299911 126.750374,156.379700 126.826096,154.443756 
	C127.004463,149.883987 129.894928,145.235352 126.341393,140.765564 
	C124.731049,138.740005 123.294273,136.570908 121.855103,134.415955 
	C118.734962,129.743973 118.784103,129.748871 115.644257,134.722015 
	C114.516968,136.507492 113.120842,138.124725 112.014992,139.921875 
	C110.930084,141.684982 109.162407,143.635971 109.274643,145.404205 
	C109.527313,149.384872 111.198753,153.270767 111.494232,157.254456 
	C112.035141,164.547180 117.064995,171.529099 113.108040,179.183456 
	C112.837959,179.705933 113.617340,180.770920 113.908653,181.583603 
	C113.608620,181.969696 113.308586,182.355789 113.008553,182.741882 
	C110.273346,181.264267 107.309395,180.091965 104.848557,178.248169 
	C98.962471,173.837982 98.099419,166.978775 97.062202,160.394363 
	C96.275200,155.398392 92.886406,153.049973 88.673515,152.153076 
	C84.321205,151.226517 79.478760,152.304337 78.014221,156.821060 
	C76.713379,160.832947 76.406395,165.814941 77.522461,169.854370 
	C83.448334,191.302078 98.950302,203.289169 120.706818,204.014542 
	C128.722549,204.281784 135.138077,208.612000 137.968048,216.463135 
	C139.378174,220.375198 139.931976,224.591278 141.270172,228.535110 
	C142.825760,233.119644 147.985382,235.847885 152.665497,234.987991 
	C156.767029,234.234406 161.101685,229.081711 160.996872,224.822357 
	C160.651886,210.802734 154.770508,199.438721 143.138931,191.813583 
	C136.936111,187.747299 129.610779,185.393326 122.721947,182.234344 
	C122.996185,181.447800 124.298203,179.679977 123.862434,178.641037 
	C121.230507,172.366196 125.367706,166.894913 125.976952,160.227264 
M98.951897,101.395714 
	C88.920952,97.164017 77.323082,96.319908 69.038963,87.346954 
	C70.175888,86.538765 71.292435,85.742859 72.411224,84.950134 
	C80.240532,79.402618 88.269608,80.397575 96.472755,84.069191 
	C101.698456,86.408134 106.816826,84.503654 109.896805,79.335121 
	C112.058975,75.706764 111.491058,70.471230 107.377861,68.096001 
	C102.138420,65.070389 96.353386,62.036552 90.493851,61.214962 
	C72.285721,58.661922 58.420635,66.631271 48.246445,81.382484 
	C40.871250,92.075531 31.945456,94.828697 19.670807,90.437515 
	C16.373421,89.257889 12.336981,89.327339 8.796995,89.862724 
	C4.933962,90.446976 3.279541,94.059593 3.102826,97.560341 
	C2.853171,102.506050 6.118833,105.887924 10.146141,107.962555 
	C23.908260,115.051941 37.667908,114.987900 50.872288,106.559799 
	C55.640835,103.516136 59.885704,99.652008 65.012772,95.661659 
	C72.247154,101.217903 80.489990,106.118027 86.825668,112.820847 
	C93.044304,119.399841 100.036209,119.293495 107.577744,118.879280 
	C108.757622,118.814468 110.955307,116.264427 110.800117,116.009506 
	C107.658699,110.849693 107.396370,103.284622 98.951897,101.395714 
M114.133980,2.812632 
	C100.910873,5.493413 96.876251,22.863533 107.149055,31.890842 
	C111.292580,35.532001 115.816925,35.976067 120.783913,36.026581 
	C127.853226,36.098476 131.945633,31.713890 134.885269,26.199509 
	C137.655273,21.003351 135.914093,12.733730 132.292801,8.621456 
	C127.548988,3.234455 121.764351,1.406308 114.133980,2.812632 
M191.012711,174.365341 
	C191.002243,180.653000 195.543991,187.593948 201.496780,189.848785 
	C208.505630,192.503647 214.503296,190.731247 220.019836,185.684036 
	C225.630463,180.550720 226.307968,173.981873 224.175919,167.556900 
	C221.667191,159.996796 212.332245,154.925247 204.464310,156.841324 
	C196.646881,158.745071 190.173920,163.248627 191.012711,174.365341 
M45.019508,79.139282 
	C49.697132,67.416428 45.617870,59.020054 33.736183,54.825191 
	C26.084412,52.123711 16.902102,55.827972 13.307054,64.165344 
	C9.982883,71.874519 13.610237,81.491493 20.916647,85.534676 
	C28.227915,89.580551 36.536095,89.050255 45.019508,79.139282 
M13.492931,178.227234 
	C14.307388,180.348312 14.728977,182.750717 16.009106,184.538315 
	C20.038879,190.165588 28.488396,192.509415 35.081829,190.186432 
	C41.845524,187.803482 47.014599,180.928772 47.035595,174.288330 
	C47.059887,166.604324 42.529785,160.339035 35.178226,157.889389 
	C24.318241,154.270645 10.437732,160.157806 13.492931,178.227234 
M105.936424,213.553741 
	C102.552864,217.504608 101.659332,222.123535 101.973022,227.200317 
	C102.504265,235.797974 109.929199,241.924698 119.775757,242.046844 
	C129.143509,242.163071 135.191193,234.553589 135.964844,227.062912 
	C136.856583,218.429092 132.530182,212.629593 124.863304,209.425797 
	C118.113640,206.605270 111.848381,208.005493 105.936424,213.553741 
M213.836411,86.683807 
	C214.823914,86.141228 215.850159,85.658371 216.792770,85.046631 
	C224.310547,80.167793 227.529358,71.846909 223.494064,63.980316 
	C219.249115,55.705036 208.766418,51.472855 201.154556,54.925243 
	C191.151398,59.462208 189.307022,68.551674 191.640442,75.993744 
	C194.573120,85.347023 203.813965,89.665932 213.836411,86.683807 
z"/>
<path fill="#C08DE7" opacity="1.000000" stroke="none" 
	d="
M235.000000,146.666672 
	C230.611893,156.456528 225.475616,158.949371 216.692734,154.248581 
	C206.358429,148.717422 195.607910,154.119553 190.191452,161.764679 
	C185.080994,168.977905 179.355026,175.420609 171.297363,179.546631 
	C161.769043,184.425705 151.952759,185.525467 141.727814,182.418182 
	C138.766190,181.518173 135.827164,180.414490 133.056808,179.042648 
	C128.077560,176.577026 126.552589,172.220978 127.004166,166.917816 
	C127.378014,162.527542 130.449112,160.388809 134.071472,159.630325 
	C136.392654,159.144302 139.268539,159.845047 141.539886,160.832428 
	C152.289612,165.505447 161.467422,164.196609 167.263657,156.774597 
	C163.046478,150.139343 155.383560,150.109543 149.164734,147.312546 
	C144.403656,145.171188 139.066055,144.161850 134.573181,141.612305 
	C129.063293,138.485611 128.353790,132.010574 125.016029,126.308235 
	C131.061783,125.813568 135.953323,124.782700 140.689789,125.267403 
	C143.436249,125.548454 146.123688,128.029327 148.502869,129.937653 
	C153.399948,133.865570 157.897705,138.304733 162.899139,142.084427 
	C166.175507,144.560440 170.046967,146.249023 173.842346,148.398117 
	C180.764038,140.089951 189.490158,133.767639 200.605621,132.318405 
	C211.947952,130.839584 223.125519,131.800171 232.003311,140.469193 
	C233.108337,141.548248 233.622208,143.232712 234.705002,144.818329 
	C235.000000,145.444443 235.000000,145.888901 235.000000,146.666672 
z"/>
<path fill="#BF8CE6" opacity="1.000000" stroke="none" 
	d="
M77.704437,26.398121 
	C77.577858,23.920216 77.110275,21.814886 77.055321,19.698841 
	C76.903160,13.840090 79.520866,10.137871 84.047913,9.498913 
	C90.108063,8.643567 95.516907,11.806663 96.953766,17.153038 
	C98.140015,21.566940 98.588615,26.291960 100.445389,30.389080 
	C104.203697,38.682114 111.944328,40.743736 120.183968,40.949902 
	C139.096405,41.423119 157.164307,57.437160 160.899033,75.489815 
	C162.656815,83.986511 160.597656,89.770844 154.561630,92.214005 
	C147.878204,94.919212 140.022018,90.077682 139.990128,82.904655 
	C139.949020,73.662964 135.595856,67.559601 127.378746,63.863346 
	C126.223564,63.343719 125.123001,62.702660 124.021004,62.130192 
	C121.579880,74.223671 126.787376,85.152145 127.977150,96.564285 
	C128.778641,104.252151 122.413628,108.300270 118.745407,114.557579 
	C115.296516,109.526718 112.242348,105.147408 109.301086,100.693542 
	C108.894402,100.077713 108.817291,99.045097 108.976089,98.286789 
	C110.141579,92.721214 111.707085,87.221458 112.547264,81.611214 
	C113.262245,76.836952 113.204208,71.944206 113.433083,67.101288 
	C113.518196,65.300316 113.446854,63.491951 113.446854,62.172493 
	C107.663345,59.637199 100.561859,57.877296 95.212967,53.811642 
	C89.476990,49.451767 85.001457,43.198853 80.752838,37.219955 
	C78.749420,34.400639 78.562012,30.290857 77.704437,26.398121 
z"/>
<path fill="#BF8DE6" opacity="1.000000" stroke="none" 
	d="
M46.628647,211.810822 
	C35.811554,211.194748 34.079155,202.723007 36.387356,196.788620 
	C37.098743,194.959671 38.875755,193.279892 40.575138,192.147614 
	C47.037777,187.841690 50.890659,181.802124 51.806629,174.298416 
	C52.182644,171.218094 51.442318,167.288696 49.710884,164.780106 
	C38.839851,149.029572 41.846577,126.001991 53.830940,112.778671 
	C57.688053,108.522820 62.492249,104.416725 69.392990,104.717079 
	C73.557831,104.898346 76.873291,106.642708 77.855675,110.099098 
	C78.738243,113.204300 77.725075,116.940308 77.122688,120.322281 
	C76.929497,121.406883 75.533485,122.510208 74.426956,123.162521 
	C65.132416,128.641846 63.134937,137.157318 64.283386,147.038193 
	C73.961212,146.166992 79.380074,138.348663 85.314941,132.543915 
	C92.753395,125.268524 100.731476,125.014130 109.630615,126.020226 
	C112.808487,126.379509 111.729088,128.434357 111.065109,130.438522 
	C107.715034,140.550491 99.136986,143.819382 90.235352,147.061569 
	C84.163559,149.273071 78.418770,152.378296 72.509773,155.044022 
	C71.194839,155.637253 69.804359,156.063034 68.168427,156.669846 
	C72.792404,167.135223 73.559326,177.845367 69.223160,188.567719 
	C64.927330,199.190369 57.902115,207.330109 46.628647,211.810822 
z"/>
<path fill="#5F1896" opacity="1.000000" stroke="none" 
	d="
M172.806885,110.405441 
	C173.416321,105.820877 173.886795,101.619743 174.349838,97.484978 
	C163.684433,97.913750 158.212051,105.735283 152.106400,111.804428 
	C145.227692,118.641998 137.480576,119.877190 128.698425,118.982765 
	C126.551979,118.764160 125.360123,117.992348 126.847565,115.423332 
	C128.797821,112.054993 129.569168,107.674484 132.197479,105.116203 
	C135.130646,102.261192 139.449768,100.643494 143.395615,99.060432 
	C148.924744,96.842148 154.776947,95.418739 160.271164,93.128159 
	C163.092911,91.951759 165.438019,89.632095 167.925552,87.880447 
	C167.326019,81.257339 165.916565,73.854851 166.155762,66.506035 
	C166.562805,54.000736 176.613251,38.042110 189.632309,33.769161 
	C193.878693,32.375462 198.995956,34.950230 201.157684,39.464535 
	C203.099380,43.519352 202.190491,48.899689 198.491989,50.835365 
	C184.128891,58.352573 184.907547,73.593834 190.707535,85.128990 
	C197.812119,99.258698 196.324738,114.780670 186.630112,126.638336 
	C182.727463,131.411728 177.852066,135.834793 172.539307,138.883850 
	C167.333908,141.871292 161.492569,139.171631 159.136749,134.455750 
	C157.054459,130.287384 159.190170,124.674835 163.262558,121.127785 
	C166.752090,118.088387 169.559052,114.265335 172.806885,110.405441 
z"/>
<path fill="#601896" opacity="1.000000" stroke="none" 
	d="
M125.766602,160.616226 
	C125.367706,166.894913 121.230507,172.366196 123.862434,178.641037 
	C124.298203,179.679977 122.996185,181.447800 122.721947,182.234344 
	C129.610779,185.393326 136.936111,187.747299 143.138931,191.813583 
	C154.770508,199.438721 160.651886,210.802734 160.996872,224.822357 
	C161.101685,229.081711 156.767029,234.234406 152.665497,234.987991 
	C147.985382,235.847885 142.825760,233.119644 141.270172,228.535110 
	C139.931976,224.591278 139.378174,220.375198 137.968048,216.463135 
	C135.138077,208.612000 128.722549,204.281784 120.706818,204.014542 
	C98.950302,203.289169 83.448334,191.302078 77.522461,169.854370 
	C76.406395,165.814941 76.713379,160.832947 78.014221,156.821060 
	C79.478760,152.304337 84.321205,151.226517 88.673515,152.153076 
	C92.886406,153.049973 96.275200,155.398392 97.062202,160.394363 
	C98.099419,166.978775 98.962471,173.837982 104.848557,178.248169 
	C107.309395,180.091965 110.273346,181.264267 113.008553,182.741882 
	C113.308586,182.355789 113.608620,181.969696 113.908653,181.583603 
	C113.617340,180.770920 112.837959,179.705933 113.108040,179.183456 
	C117.064995,171.529099 112.035141,164.547180 111.494232,157.254456 
	C111.198753,153.270767 109.527313,149.384872 109.274643,145.404205 
	C109.162407,143.635971 110.930084,141.684982 112.014992,139.921875 
	C113.120842,138.124725 114.516968,136.507492 115.644257,134.722015 
	C118.784103,129.748871 118.734962,129.743973 121.855103,134.415955 
	C123.294273,136.570908 124.731049,138.740005 126.341393,140.765564 
	C129.894928,145.235352 127.004463,149.883987 126.826096,154.443756 
	C126.750374,156.379700 126.272209,158.299911 125.766602,160.616226 
z"/>
<path fill="#601897" opacity="1.000000" stroke="none" 
	d="
M99.251587,101.655807 
	C107.396370,103.284622 107.658699,110.849693 110.800117,116.009506 
	C110.955307,116.264427 108.757622,118.814468 107.577744,118.879280 
	C100.036209,119.293495 93.044304,119.399841 86.825668,112.820847 
	C80.489990,106.118027 72.247154,101.217903 65.012772,95.661659 
	C59.885704,99.652008 55.640835,103.516136 50.872288,106.559799 
	C37.667908,114.987900 23.908260,115.051941 10.146141,107.962555 
	C6.118833,105.887924 2.853171,102.506050 3.102826,97.560341 
	C3.279541,94.059593 4.933962,90.446976 8.796995,89.862724 
	C12.336981,89.327339 16.373421,89.257889 19.670807,90.437515 
	C31.945456,94.828697 40.871250,92.075531 48.246445,81.382484 
	C58.420635,66.631271 72.285721,58.661922 90.493851,61.214962 
	C96.353386,62.036552 102.138420,65.070389 107.377861,68.096001 
	C111.491058,70.471230 112.058975,75.706764 109.896805,79.335121 
	C106.816826,84.503654 101.698456,86.408134 96.472755,84.069191 
	C88.269608,80.397575 80.240532,79.402618 72.411224,84.950134 
	C71.292435,85.742859 70.175888,86.538765 69.038963,87.346954 
	C77.323082,96.319908 88.920952,97.164017 99.251587,101.655807 
z"/>
<path fill="#BF8CE6" opacity="1.000000" stroke="none" 
	d="
M114.489487,2.696049 
	C121.764351,1.406308 127.548988,3.234455 132.292801,8.621456 
	C135.914093,12.733730 137.655273,21.003351 134.885269,26.199509 
	C131.945633,31.713890 127.853226,36.098476 120.783913,36.026581 
	C115.816925,35.976067 111.292580,35.532001 107.149055,31.890842 
	C96.876251,22.863533 100.910873,5.493413 114.489487,2.696049 
z"/>
<path fill="#BF8DE6" opacity="1.000000" stroke="none" 
	d="
M191.014069,173.922119 
	C190.173920,163.248627 196.646881,158.745071 204.464310,156.841324 
	C212.332245,154.925247 221.667191,159.996796 224.175919,167.556900 
	C226.307968,173.981873 225.630463,180.550720 220.019836,185.684036 
	C214.503296,190.731247 208.505630,192.503647 201.496780,189.848785 
	C195.543991,187.593948 191.002243,180.653000 191.014069,173.922119 
z"/>
<path fill="#601896" opacity="1.000000" stroke="none" 
	d="
M44.869396,79.496246 
	C36.536095,89.050255 28.227915,89.580551 20.916647,85.534676 
	C13.610237,81.491493 9.982883,71.874519 13.307054,64.165344 
	C16.902102,55.827972 26.084412,52.123711 33.736183,54.825191 
	C45.617870,59.020054 49.697132,67.416428 44.869396,79.496246 
z"/>
<path fill="#BF8DE6" opacity="1.000000" stroke="none" 
	d="
M13.242327,177.950775 
	C10.437732,160.157806 24.318241,154.270645 35.178226,157.889389 
	C42.529785,160.339035 47.059887,166.604324 47.035595,174.288330 
	C47.014599,180.928772 41.845524,187.803482 35.081829,190.186432 
	C28.488396,192.509415 20.038879,190.165588 16.009106,184.538315 
	C14.728977,182.750717 14.307388,180.348312 13.242327,177.950775 
z"/>
<path fill="#601897" opacity="1.000000" stroke="none" 
	d="
M106.193481,213.280640 
	C111.848381,208.005493 118.113640,206.605270 124.863304,209.425797 
	C132.530182,212.629593 136.856583,218.429092 135.964844,227.062912 
	C135.191193,234.553589 129.143509,242.163071 119.775757,242.046844 
	C109.929199,241.924698 102.504265,235.797974 101.973022,227.200317 
	C101.659332,222.123535 102.552864,217.504608 106.193481,213.280640 
z"/>
<path fill="#601897" opacity="1.000000" stroke="none" 
	d="
M213.460541,86.827339 
	C203.813965,89.665932 194.573120,85.347023 191.640442,75.993744 
	C189.307022,68.551674 191.151398,59.462208 201.154556,54.925243 
	C208.766418,51.472855 219.249115,55.705036 223.494064,63.980316 
	C227.529358,71.846909 224.310547,80.167793 216.792770,85.046631 
	C215.850159,85.658371 214.823914,86.141228 213.460541,86.827339 
z"/>
</svg>